{"asset":{"generator":"3D Builder","version":"2.0"},"scene":0,"scenes":[{"nodes":[0]}],"nodes":[{"children":[1,2,3,4]},{"mesh":0,"matrix":[1,0,0,0,0,-1.1920928955078125E-7,-0.99999988079071045,0,0,0.99999988079071045,-1.1920928955078125E-7,0,0,0.014133483171463013,-1.6848427097926333E-9,1]},{"mesh":1,"matrix":[1,0,0,0,0,-1.1920928955078125E-7,-0.99999988079071045,0,0,0.99999988079071045,-1.1920928955078125E-7,0,0,0.014133483171463013,-1.6848427097926333E-9,1]},{"mesh":2,"matrix":[1,0,0,0,0,-1.1920928955078125E-7,-0.99999988079071045,0,0,0.99999988079071045,-1.1920928955078125E-7,0,0,0.014133483171463013,-1.6848427097926333E-9,1]},{"mesh":3,"matrix":[1,0,0,0,0,-1.1920928955078125E-7,-0.99999988079071045,0,0,0.99999988079071045,-1.1920928955078125E-7,0,0,0.014133483171463013,-1.6848427097926333E-9,1]}],"meshes":[{"primitives":[{"attributes":{"POSITION":0,"COLOR_0":1},"mode":4,"indices":2}]},{"primitives":[{"attributes":{"POSITION":3,"COLOR_0":4},"mode":4,"indices":5}]},{"primitives":[{"attributes":{"POSITION":6,"COLOR_0":7},"mode":4,"indices":8}]},{"primitives":[{"attributes":{"POSITION":9,"COLOR_0":10},"mode":4,"indices":11}]}],"accessors":[{"bufferView":0,"byteOffset":0,"count":19586,"componentType":5126,"type":"VEC3","min":[-0.015293288975954056,-0.015293288044631481,-0.014133485034108162],"max":[0.015293288044631481,0.015293288044631481,0.019505832344293594]},{"bufferView":1,"byteOffset":0,"count":19586,"componentType":5121,"type":"VEC4","normalized":true},{"bufferView":2,"byteOffset":0,"count":117504,"componentType":5125,"type":"SCALAR"},{"bufferView":3,"byteOffset":0,"count":10370,"componentType":5126,"type":"VEC3","min":[-0.040092162787914276,-0.040092162787914276,0.013612506911158562],"max":[0.040092162787914276,0.040092162787914276,0.037780832499265671]},{"bufferView":4,"byteOffset":0,"count":10370,"componentType":5121,"type":"VEC4","normalized":true},{"bufferView":5,"byteOffset":0,"count":62208,"componentType":5125,"type":"SCALAR"},{"bufferView":6,"byteOffset":0,"count":12674,"componentType":5126,"type":"VEC3","min":[-0.035133663564920425,-0.035133663564920425,0.0329342782497406],"max":[0.035133663564920425,0.035133663564920425,0.058073863387107849]},{"bufferView":7,"byteOffset":0,"count":12674,"componentType":5121,"type":"VEC4","normalized":true},{"bufferView":8,"byteOffset":0,"count":76032,"componentType":5125,"type":"SCALAR"},{"bufferView":9,"byteOffset":0,"count":10370,"componentType":5126,"type":"VEC3","min":[-0.029222236946225166,-0.029222236946225166,0.050230782479047775],"max":[0.029222236946225166,0.029222236946225166,0.088036298751831055]},{"bufferView":10,"byteOffset":0,"count":10370,"componentType":5121,"type":"VEC4","normalized":true},{"bufferView":11,"byteOffset":0,"count":62208,"componentType":5125,"type":"SCALAR"}],"bufferViews":[{"buffer":0,"byteOffset":0,"byteLength":235032,"byteStride":12,"target":34962},{"buffer":0,"byteOffset":235032,"byteLength":78344,"byteStride":4,"target":34962},{"buffer":0,"byteOffset":313376,"byteLength":470016,"target":34963},{"buffer":0,"byteOffset":783392,"byteLength":124440,"byteStride":12,"target":34962},{"buffer":0,"byteOffset":907832,"byteLength":41480,"byteStride":4,"target":34962},{"buffer":0,"byteOffset":949312,"byteLength":248832,"target":34963},{"buffer":0,"byteOffset":1198144,"byteLength":152088,"byteStride":12,"target":34962},{"buffer":0,"byteOffset":1350232,"byteLength":50696,"byteStride":4,"target":34962},{"buffer":0,"byteOffset":1400928,"byteLength":304128,"target":34963},{"buffer":0,"byteOffset":1705056,"byteLength":124440,"byteStride":12,"target":34962},{"buffer":0,"byteOffset":1829496,"byteLength":41480,"byteStride":4,"target":34962},{"buffer":0,"byteOffset":1870976,"byteLength":248832,"target":34963}],"buffers":[{"byteLength":2119808,"uri":"arbolGLTF.bin"}]}